<svg xmlns="http://www.w3.org/2000/svg" version="1.1" xmlns:xlink="http://www.w3.org/1999/xlink" viewBox="0 0 200 200"><rect width="200" height="200" fill="url('#gradient')"></rect><defs><linearGradient id="gradient" gradientTransform="rotate(53 0.5 0.5)"><stop offset="0%" stop-color="#ceaa96"></stop><stop offset="100%" stop-color="#97ac8d"></stop></linearGradient></defs><g><g fill="#48587b" transform="matrix(5.866666666666666,0,0,5.866666666666666,51.0429405450821,144)" stroke="#8fa983" stroke-width="0.3"><path d="M4.14-15L4.14-9.43Q5.20-10.76 6.84-10.76L6.84-10.76Q8.58-10.76 9.47-9.73Q10.36-8.69 10.38-6.67L10.38-6.67L10.38 0L7.08 0L7.08-6.59Q7.08-7.43 6.74-7.83Q6.40-8.22 5.58-8.22L5.58-8.22Q4.56-8.22 4.14-7.58L4.14-7.58L4.14 0L0.85 0L0.85-15L4.14-15ZM15.68-10.57L15.68 0L12.38 0L12.38-10.57L15.68-10.57ZM12.19-13.29L12.19-13.29Q12.19-13.99 12.70-14.44Q13.20-14.89 14.01-14.89Q14.82-14.89 15.33-14.44Q15.84-13.99 15.84-13.29Q15.84-12.59 15.33-12.14Q14.82-11.69 14.01-11.69Q13.20-11.69 12.70-12.14Q12.19-12.59 12.19-13.29Z"></path></g></g></svg>